<?xml version="1.0" standalone="no"?><!DOCTYPE svg PUBLIC "-//W3C//DTD SVG 1.1//EN" "http://www.w3.org/Graphics/SVG/1.1/DTD/svg11.dtd"><svg t="1748612450958" class="icon" viewBox="0 0 1113 1024" version="1.1" xmlns="http://www.w3.org/2000/svg" p-id="1658" width="139.125" height="128" xmlns:xlink="http://www.w3.org/1999/xlink"><path d="M760.685714 927.890286a29.257143 29.257143 0 0 1-21.065143-9.508572L585.142857 751.030857a29.257143 29.257143 0 0 1 43.885714-39.643428l131.657143 144.676571 302.226286-310.857143a29.257143 29.257143 0 0 1 41.984 40.813714L781.458286 918.966857a29.257143 29.257143 0 0 1-20.772572 8.923429z" fill="#d81e06" p-id="1659"></path><path d="M824.027429 1024H147.309714C66.121143 1024 0 965.485714 0 892.342857V130.779429C0 58.514286 66.121143 0 147.309714 0h676.717715C905.362286 0 971.337143 58.514286 971.337143 130.779429v388.973714a29.257143 29.257143 0 1 1-58.514286 0V130.779429C912.822857 90.989714 873.033143 58.514286 824.027429 58.514286H147.309714C98.304 58.514286 58.514286 90.989714 58.514286 130.779429V892.342857c0 40.228571 39.789714 73.142857 88.795428 73.142857h676.717715a29.257143 29.257143 0 0 1 0 58.514286z" fill="#d81e06" p-id="1660"></path><path d="M305.152 464.457143V240.054857a100.352 100.352 0 0 1-23.113143 17.408 125.513143 125.513143 0 0 1-30.134857 13.458286V238.445714a178.468571 178.468571 0 0 0 39.058286-19.017143 168.228571 168.228571 0 0 0 32.036571-23.698285h10.971429v268.726857zM412.672 338.358857c0-46.226286 6.729143-81.334857 20.187429-105.033143a64.073143 64.073143 0 0 1 58.514285-35.693714q73.142857 0 73.142857 134.436571a203.922286 203.922286 0 0 1-20.626285 102.4 64.073143 64.073143 0 0 1-58.514286 35.108572 59.830857 59.830857 0 0 1-54.418286-33.353143 196.900571 196.900571 0 0 1-18.285714-97.865143z m29.257143-1.462857c0 69.632 15.652571 104.448 46.665143 104.448s45.787429-35.401143 45.787428-106.203429q0-110.006857-44.909714-109.860571c-31.158857 0-47.104 37.156571-47.104 111.177143zM591.433143 338.358857c0-46.226286 6.729143-81.334857 20.333714-105.033143a63.780571 63.780571 0 0 1 58.514286-35.693714q73.142857 0 73.142857 134.436571a203.922286 203.922286 0 0 1-20.626286 102.4 63.926857 63.926857 0 0 1-58.514285 35.108572 60.123429 60.123429 0 0 1-54.418286-33.353143 196.900571 196.900571 0 0 1-18.432-97.865143z m29.257143-1.462857q0 104.448 46.518857 104.448t45.933714-106.203429q0-110.006857-45.056-109.860571-46.811429 0-46.811428 111.177143z" fill="#d81e06" p-id="1661"></path><path d="M241.225143 592.749714S643.657143 457.874286 800.182857 486.692571c0 0-331.337143-46.372571-558.957714 106.057143z" fill="#d81e06" p-id="1662"></path><path d="M142.336 641.316571l90.697143-60.708571C419.693714 455.533714 669.988571 460.946286 764.489143 468.114286a248.685714 248.685714 0 0 1 38.326857 3.949714l-4.681143 29.257143c-0.731429 0-16.237714-2.194286-42.276571-3.803429-171.885714-3.949714-506.441143 107.958857-510.098286 109.275429zM406.528 758.930286h-217.965714a21.942857 21.942857 0 0 1 0-43.885715h217.965714a21.942857 21.942857 0 0 1 0 43.885715zM504.393143 861.769143h-307.2a21.942857 21.942857 0 0 1 0-43.885714h307.2a21.942857 21.942857 0 0 1 0 43.885714z" fill="#d81e06" p-id="1663"></path></svg>